<?xml version="1.0" standalone="no"?>
<!DOCTYPE svg PUBLIC "-//W3C//DTD SVG 20010904//EN"
 "http://www.w3.org/TR/2001/REC-SVG-20010904/DTD/svg10.dtd">
<svg version="1.0" xmlns="http://www.w3.org/2000/svg"
 width="32.000000pt" height="5.000000pt" viewBox="0 0 32.000000 5.000000"
 preserveAspectRatio="xMidYMid meet">

<g transform="translate(0.000000,5.000000) scale(0.100000,-0.100000)"
fill="#000000" stroke="none">
<path d="M1 17 c0 -12 3 -17 5 -10 4 8 13 9 27 4 12 -4 47 -7 77 -6 74 3 77 4
60 15 -9 6 -20 5 -29 -3 -8 -7 -12 -7 -8 -1 4 7 -10 10 -41 9 -26 -1 -57 2
-69 6 -20 7 -23 5 -22 -14z"/>
<path d="M210 21 c0 -6 4 -12 8 -15 5 -3 9 1 9 9 0 8 -4 15 -9 15 -4 0 -8 -4
-8 -9z"/>
</g>
</svg>
